<svg id="visual" viewBox="0 0 450 900" width="450" height="900" xmlns="http://www.w3.org/2000/svg" xmlns:xlink="http://www.w3.org/1999/xlink" version="1.1"><rect x="0" y="0" width="450" height="900" fill="#6b0303"></rect><defs><linearGradient id="grad1_0" x1="0%" y1="0%" x2="100%" y2="100%"><stop offset="30%" stop-color="#a00303" stop-opacity="1"></stop><stop offset="70%" stop-color="#a00303" stop-opacity="1"></stop></linearGradient></defs><defs><linearGradient id="grad1_1" x1="0%" y1="0%" x2="100%" y2="100%"><stop offset="30%" stop-color="#a00303" stop-opacity="1"></stop><stop offset="70%" stop-color="#6b0303" stop-opacity="1"></stop></linearGradient></defs><defs><linearGradient id="grad2_0" x1="0%" y1="0%" x2="100%" y2="100%"><stop offset="30%" stop-color="#a00303" stop-opacity="1"></stop><stop offset="70%" stop-color="#a00303" stop-opacity="1"></stop></linearGradient></defs><defs><linearGradient id="grad2_1" x1="0%" y1="0%" x2="100%" y2="100%"><stop offset="30%" stop-color="#6b0303" stop-opacity="1"></stop><stop offset="70%" stop-color="#a00303" stop-opacity="1"></stop></linearGradient></defs><g transform="translate(450, 0)"><path d="M0 405C-69.2 392.2 -138.3 379.4 -200.5 347.3C-262.7 315.1 -317.8 263.6 -350.7 202.5C-383.7 141.4 -394.3 70.7 -405 0L0 0Z" fill="#850205"></path><path d="M0 202.5C-34.6 196.1 -69.2 189.7 -100.2 173.6C-131.3 157.6 -158.9 131.8 -175.4 101.3C-191.8 70.7 -197.2 35.3 -202.5 0L0 0Z" fill="#a00303"></path></g><g transform="translate(0, 900)"><path d="M0 -405C69.7 -393.1 139.4 -381.3 201.5 -349C263.6 -316.7 318.1 -264.1 350.7 -202.5C383.4 -140.9 394.2 -70.5 405 0L0 0Z" fill="#850205"></path><path d="M0 -202.5C34.9 -196.6 69.7 -190.6 100.7 -174.5C131.8 -158.4 159 -132 175.4 -101.3C191.7 -70.5 197.1 -35.2 202.5 0L0 0Z" fill="#a00303"></path></g></svg>