<svg id="visual" viewBox="0 0 450 900" width="450" height="900" xmlns="http://www.w3.org/2000/svg" xmlns:xlink="http://www.w3.org/1999/xlink" version="1.1"><rect width="450" height="900" fill="#ffdddd"></rect><g><g transform="translate(251 713)"><path d="M0 -86.9L68 -54.2L84.8 19.3L37.7 78.3L-37.7 78.3L-84.8 19.3L-68 -54.2Z" fill="#ff2926"></path></g><g transform="translate(201 408)"><path d="M0 -60L46.9 -37.4L58.5 13.4L26 54.1L-26 54.1L-58.5 13.4L-46.9 -37.4Z" fill="#ff2926"></path></g><g transform="translate(285 242)"><path d="M0 -45L35.2 -28.1L43.9 10L19.5 40.5L-19.5 40.5L-43.9 10L-35.2 -28.1Z" fill="#ff2926"></path></g><g transform="translate(136 108)"><path d="M0 -41L32.1 -25.6L40 9.1L17.8 36.9L-17.8 36.9L-40 9.1L-32.1 -25.6Z" fill="#ff2926"></path></g><g transform="translate(352 551)"><path d="M0 -59L46.1 -36.8L57.5 13.1L25.6 53.2L-25.6 53.2L-57.5 13.1L-46.1 -36.8Z" fill="#ff2926"></path></g><g transform="translate(95 615)"><path d="M0 -53L41.4 -33L51.7 11.8L23 47.8L-23 47.8L-51.7 11.8L-41.4 -33Z" fill="#ff2926"></path></g><g transform="translate(94 790)"><path d="M0 -33L25.8 -20.6L32.2 7.3L14.3 29.7L-14.3 29.7L-32.2 7.3L-25.8 -20.6Z" fill="#ff2926"></path></g></g></svg>