<svg xmlns="http://www.w3.org/2000/svg" version="1.0" preserveAspectRatio="xMidYMid meet" viewBox="34.15 32.38 1245.71 188.19">
<metadata>
Created by potrace 1.15, written by Peter Selinger 2001-2017
</metadata>
<g transform="translate(0.000000,640.000000) scale(0.100000,-0.100000)" fill="#000000" stroke="none">
<path d="M4345 6070 c-2071 -27 -2802 -43 -2911 -65 -190 -39 -614 -175 -762 -246 -123 -58 -231 -128 -267 -172 -14 -18 -30 -38 -35 -44 -30 -37 -39 -206 -14 -280 33 -101 78 -114 448 -122 l280 -6 17 -58 c24 -81 65 -177 120 -277 25 -47 54 -110 64 -140 10 -30 26 -71 35 -90 40 -78 135 -139 250 -160 36 -7 101 -23 145 -35 44 -13 106 -26 137 -30 50 -6 60 -12 87 -46 102 -126 307 -140 463 -33 85 59 137 183 123 293 -7 58 -38 150 -62 188 -8 12 -11 28 -7 34 4 7 3 9 -3 6 -6 -4 -18 4 -27 18 -9 14 -35 39 -58 55 -22 17 -36 30 -31 30 6 0 35 -21 64 -47 30 -27 48 -41 41 -32 -7 9 -14 39 -17 68 l-4 51 3017 0 c1659 0 3533 -3 4165 -7 l1147 -6 0 -38 c0 -21 -5 -50 -12 -66 -6 -15 -12 -37 -14 -48 -1 -11 -15 -49 -30 -85 -24 -55 -28 -79 -29 -155 0 -79 3 -97 28 -147 57 -115 167 -180 312 -182 72 -1 87 2 147 32 42 20 79 47 98 72 27 34 37 39 88 46 31 3 93 17 137 29 44 12 109 28 145 35 147 27 255 119 289 244 l10 38 -35 -38 c-25 -29 -19 -16 22 46 70 103 145 260 175 363 l23 77 191 0 c243 1 374 12 423 37 47 25 73 77 80 160 4 60 -13 187 -29 208 -126 161 -329 265 -814 414 -221 68 -219 68 -1865 97 -1032 18 -4726 27 -5745 14z m6990 -957 c-32 -50 -68 -83 -92 -83 -13 0 -42 -17 -67 -40 -41 -38 -152 -97 -162 -87 -3 3 16 13 42 23 27 10 70 37 96 61 26 23 66 48 88 54 36 11 57 30 84 76 6 10 -947 13 -4728 13 -2605 0 -4736 -3 -4736 -6 0 -24 51 -69 106 -94 35 -16 67 -36 71 -46 10 -28 121 -71 173 -68 l45 3 -45 -8 c-57 -11 -130 16 -180 64 -19 19 -51 40 -70 46 -41 14 -86 52 -106 92 l-15 27 4757 0 4756 0 -17 -27z m-347 -200 c-10 -2 -26 -2 -35 0 -10 3 -2 5 17 5 19 0 27 -2 18 -5z m-8695 -10 c-7 -2 -19 -2 -25 0 -7 3 -2 5 12 5 14 0 19 -2 13 -5z m8567 -17 c0 -2 -7 -7 -16 -10 -8 -3 -12 -2 -9 4 6 10 25 14 25 6z m-82 -65 c-24 -27 -45 -47 -47 -45 -5 4 79 94 87 94 2 0 -16 -22 -40 -49z"/>
</g>
</svg>