<svg xmlns="http://www.w3.org/2000/svg" width="66.44426" height="66.44426" viewBox="0 0 66.44426 66.44426"><g id="b2133d49-705d-44b2-8a0b-8c965646a2bf" data-name="Layer 2"><g id="ea0bdf01-d0e0-4fb7-afd9-4ab898079002" data-name="Layer 1"><path d="M50.6313,8.68707A29.65928,29.65928,0,0,0,8.68707,50.632a29.59447,29.59447,0,0,0,40.95925.89358l14.52949,14.5294a1.32874,1.32874,0,0,0,1.87912-1.87912L51.52544,49.64632A29.59185,29.59185,0,0,0,50.6313,8.68707ZM10.56619,48.75282a27.0018,27.0018,0,0,1,38.186-38.18663,26.9989,26.9989,0,0,1,.00648,38.17958l-.00778.00511-.00519.00786a27.00124,27.00124,0,0,1-38.1795-.00592Z" style="fill:#fff"/></g></g></svg>