<svg xmlns="http://www.w3.org/2000/svg" width="70.8942" height="66.44426" viewBox="0 0 70.8942 66.44426"><g id="bc030c89-12e6-4d37-b981-ed31163766ba" data-name="Layer 2"><g id="b6fb42de-b075-45a3-aa3f-ca30eeb56004" data-name="Layer 1"><path d="M70.8942,42.36989a15.95416,15.95416,0,0,0-3.72061-10.08473,1.30234,1.30234,0,0,0-.33644-.27788,20.98535,20.98535,0,0,0,.75041-5.53989C67.58756,11.873,52.42867,0,33.79443,0S0,11.873,0,26.46739c0,7.28551,3.84909,14.26735,10.58826,19.252v13.538a1.32874,1.32874,0,0,0,2.26844.93956l8.97-8.97A41.10969,41.10969,0,0,0,27.09,52.396a1.29307,1.29307,0,0,0,.278.59721C31.818,58.0933,39.17356,61.1378,47.04435,61.1378a29.63384,29.63384,0,0,0,8.18484-1.13422l6.05136,6.05135a1.32877,1.32877,0,0,0,2.26845-.93956L63.5477,55.93C68.22605,52.404,70.8942,47.496,70.8942,42.36989ZM20.51337,48.782,13.246,56.04936V45.12759A1.32713,1.32713,0,0,0,12.6867,43.957C6.3135,39.45387,2.65777,33.07938,2.65777,26.46739c0-13.12922,13.96757-23.80962,31.13666-23.80962,17.1678,0,31.13536,10.6804,31.13536,23.80962S50.96223,50.277,33.79443,50.277a39.26333,39.26333,0,0,1-11.9379-1.822A1.33571,1.33571,0,0,0,20.51337,48.782Zm40.93978,5.38822a1.32607,1.32607,0,0,0-.56192,1.08491v6.65221L56.5451,57.56123a1.33569,1.33569,0,0,0-1.34316-.327A26.8289,26.8289,0,0,1,47.04435,58.48a24.371,24.371,0,0,1-16.09262-5.64484c.94184.0614,1.88886.0996,2.8427.0996,14.86755,0,27.51354-7.5616,32.02221-18.02982a13.08375,13.08375,0,0,1,2.41979,7.46492C68.23643,46.82244,65.76424,51.12315,61.45315,54.17024Z" style="fill:#fff"/></g></g></svg>