<svg xmlns="http://www.w3.org/2000/svg" width="50" height="50" viewBox="0 0 50 50"><g id="Layer_2" data-name="Layer 2"><g id="Layer_1-2" data-name="Layer 1"><path d="M42,50H8a8.009,8.009,0,0,1-8-8V8A8.009,8.009,0,0,1,8,0H42a8.009,8.009,0,0,1,8,8V42A8.009,8.009,0,0,1,42,50ZM8,2A6.006,6.006,0,0,0,2,8V42a6.006,6.006,0,0,0,6,6H42a6.006,6.006,0,0,0,6-6V8a6.006,6.006,0,0,0-6-6Z"/><path d="M25,36.929A11.929,11.929,0,1,1,36.93,25,11.942,11.942,0,0,1,25,36.929Zm0-21.858A9.929,9.929,0,1,0,34.93,25,9.94,9.94,0,0,0,25,15.071Z"/><path d="M39.467,14.8a4.118,4.118,0,1,1,4.118-4.118A4.122,4.122,0,0,1,39.467,14.8Zm0-6.235a2.118,2.118,0,1,0,2.118,2.117A2.12,2.12,0,0,0,39.467,8.562Z"/></g></g></svg>