<svg xmlns="http://www.w3.org/2000/svg" width="65.833" height="50" viewBox="0 0 65.833 50"><g id="Layer_2" data-name="Layer 2"><g id="Layer_1-2" data-name="Layer 1"><path d="M50.745,50H15.088A15.106,15.106,0,0,1,0,34.912V15.088A15.106,15.106,0,0,1,15.088,0H50.745A15.106,15.106,0,0,1,65.833,15.088V34.912A15.106,15.106,0,0,1,50.745,50ZM15.088,2A13.1,13.1,0,0,0,2,15.088V34.912A13.1,13.1,0,0,0,15.088,48H50.745A13.1,13.1,0,0,0,63.833,34.912V15.088A13.1,13.1,0,0,0,50.745,2Zm9.259,33.885A1.746,1.746,0,0,1,22.6,34.139V15.893a1.745,1.745,0,0,1,2.533-1.557l18.549,9.4a1.745,1.745,0,0,1-.038,3.131h0L25.1,35.714A1.75,1.75,0,0,1,24.347,35.885ZM24.6,16.309V33.734l17.714-8.449Zm18.613,9.655h0Zm-.43-.9h0Z"/></g></g></svg>