<svg xmlns="http://www.w3.org/2000/svg" width="51.31846" height="66.45206" viewBox="0 0 51.31846 66.45206"><g id="baafa979-733a-43ce-829b-b2a03002f2ad" data-name="Layer 2"><g id="a24a0d35-e4a4-4992-b0f8-e17a483402c6" data-name="Layer 1"><path d="M2.58461.42957A4.40315,4.40315,0,0,0,.0047,4.681L2.55087,62.16952a4.39312,4.39312,0,0,0,3.35855,4.1346,4.65147,4.65147,0,0,0,1.15758.14794,4.38169,4.38169,0,0,0,3.77642-2.16074l11.52-18.99241.00129-.0013a1.81675,1.81675,0,0,1,1.82852-.85l21.95,3.40786a4.47236,4.47236,0,0,0,3.71413-7.71117L7.50045,1.19134A4.40884,4.40884,0,0,0,2.58461.42957ZM48.46489,44.22308a1.763,1.763,0,0,1-1.91417,1.00575L24.60206,41.821a4.44954,4.44954,0,0,0-4.511,2.101l-11.52,18.99112a1.76842,1.76842,0,0,1-2.00241.81628A1.7641,1.7641,0,0,1,5.206,62.05272L2.65988,4.56416A1.78014,1.78014,0,0,1,3.70715,2.83947,1.94523,1.94523,0,0,1,4.50526,2.663a1.72647,1.72647,0,0,1,1.19652.48535l42.35692,38.953A1.76433,1.76433,0,0,1,48.46489,44.22308Z" style="fill:#fff"/></g></g></svg>