<svg xmlns="http://www.w3.org/2000/svg" width="59.705" height="49.983" viewBox="0 0 59.705 49.983"><g id="Layer_2" data-name="Layer 2"><g id="Layer_1-2" data-name="Layer 1"><path d="M18.66,49.983A35.142,35.142,0,0,1,1,45.22a1.983,1.983,0,0,1-.937-2.207,1.966,1.966,0,0,1,1.9-1.464H3.4a22.01,22.01,0,0,0,10.3-2.542A13.571,13.571,0,0,1,5.458,30.47a1.637,1.637,0,0,1,.336-1.6,1.736,1.736,0,0,1,.339-.293A13.464,13.464,0,0,1,1.247,18.036,1.654,1.654,0,0,1,3.12,16.419,13.483,13.483,0,0,1,3.163,2.96a1.651,1.651,0,0,1,2.705-.212A31.625,31.625,0,0,0,26.96,14.3a14.428,14.428,0,0,1,.375-4.253,13.056,13.056,0,0,1,8.8-9.408,13.7,13.7,0,0,1,13.13,2.7.612.612,0,0,0,.536.141,21.986,21.986,0,0,0,5.821-2.4A1.65,1.65,0,0,1,58.036,3a13.356,13.356,0,0,1-1.361,2.953c.238-.095.473-.195.707-.3h0a1.651,1.651,0,0,1,2.042,2.426,25.575,25.575,0,0,1-5.148,5.65,1.117,1.117,0,0,0-.422.871v.19a35.756,35.756,0,0,1-2.3,12.392A36.233,36.233,0,0,1,44.8,38.494a33.362,33.362,0,0,1-11.058,8.285A35.6,35.6,0,0,1,18.66,49.983Zm-16.7-6.434a33.969,33.969,0,0,0,16.7,4.434A33.615,33.615,0,0,0,32.9,44.964a31.377,31.377,0,0,0,10.4-7.792A34.267,34.267,0,0,0,49.684,26.48a33.736,33.736,0,0,0,2.17-11.691V14.6a3.112,3.112,0,0,1,1.161-2.425,23.52,23.52,0,0,0,4.056-4.231,23.841,23.841,0,0,1-3.03.937,1,1,0,0,1-.921-1.7,11.446,11.446,0,0,0,2.689-3.915,23.951,23.951,0,0,1-5.515,2.15,2.636,2.636,0,0,1-2.352-.579A11.678,11.678,0,0,0,36.728,2.546a11.047,11.047,0,0,0-7.447,7.96,12.3,12.3,0,0,0-.274,4.237,1.455,1.455,0,0,1-.361,1.129,1.5,1.5,0,0,1-1.232.482A33.593,33.593,0,0,1,4.647,4.409a11.455,11.455,0,0,0,2.1,13.464,1,1,0,0,1-.932,1.686,12.12,12.12,0,0,1-2.566-.922,11.451,11.451,0,0,0,6.674,9.977,1,1,0,0,1-.393,1.91l-.288,0a12.083,12.083,0,0,1-1.694-.12,11.544,11.544,0,0,0,8.866,7.251,1,1,0,0,1,.4,1.817A23.975,23.975,0,0,1,3.4,43.549ZM58.193,7.481Zm-.405-.914h0Z"/></g></g></svg>