<svg xmlns="http://www.w3.org/2000/svg" width="59.06801" height="67.90622" viewBox="0 0 59.06801 67.90622"><g id="acaa40c8-0985-4d3f-ad08-fa2f1f21e1b3" data-name="Layer 2"><g id="b23c7854-9761-4b98-b9c6-8e88ed0ad746" data-name="Layer 1"><path d="M11.8758,35.77744c-3.44809,14.67743-3.99574,21.20571,4.01,31.61033a1.32937,1.32937,0,0,0,2.10753-1.62087c-7.33742-9.53579-6.83519-15.31008-3.52985-29.38082a42.24232,42.24232,0,0,0,.95514-9.61171c.06229-4.28449.1155-7.98434,3.01984-12.76846C21.14036,9.56635,25.262,7.8436,31.02265,8.72606a7.84349,7.84349,0,0,0,2.68632.0026c5.69188-.87533,9.942.89738,12.60105,5.276,2.90693,4.79,2.96014,8.4937,3.02243,12.78143a42.31951,42.31951,0,0,0,.95124,9.59873c3.30535,14.07139,3.80757,19.84633-3.52076,29.38277a1.329,1.329,0,0,0,2.10753,1.61958c7.99667-10.40528,7.44772-16.93291,4.00093-31.60969a39.57714,39.57714,0,0,1-.88117-9.02967c-.06489-4.48175-.12588-8.71432-3.40916-14.12265C45.35877,7.31736,40.07957,5.06,33.282,6.10528a5.11913,5.11913,0,0,1-1.8389-.00325c-6.769-1.03559-12.04561,1.216-15.27569,6.52309-3.28068,5.40379-3.34168,9.63312-3.40656,14.111A39.34666,39.34666,0,0,1,11.8758,35.77744Z" style="fill:#fff"/><path d="M43.13315,37.59168l1.0343-3.10484a5.37815,5.37815,0,0,0,2.99-4.1359l.45421-3.49806a1.32751,1.32751,0,0,0-.3452-1.07582,1.35069,1.35069,0,0,0-1.04857-.42242,22.2375,22.2375,0,0,1-17.47926-8.50927,1.33016,1.33016,0,0,0-2.34242.49184c-.07267.292-1.86095,7.16352-8.11995,8.02782a1.32807,1.32807,0,0,0-1.13552,1.48785l.45291,3.49676a5.38357,5.38357,0,0,0,2.99129,4.1372l1.03559,3.10549a11.322,11.322,0,0,0,3.39586,5.03214c.07268.42274.73355,4.73967-.76145,14.34181A1.32944,1.32944,0,0,0,25.3645,58.484a1.37538,1.37538,0,0,0,.205.01558,1.33,1.33,0,0,0,1.312-1.12449,66.0028,66.0028,0,0,0,.9626-12.98389,11.45741,11.45741,0,0,0,1.86388.65017l.20115.04867a10.44492,10.44492,0,0,0,4.995-.013l.19856-.05a11.44009,11.44009,0,0,0,1.80321-.634,66.554,66.554,0,0,0,.961,12.98072,1.32854,1.32854,0,0,0,1.312,1.12579,1.37538,1.37538,0,0,0,.205-.01558,1.32972,1.32972,0,0,0,1.10957-1.5164c-1.48007-9.5641-.83867-13.88817-.7621-14.34213A11.3359,11.3359,0,0,0,43.13315,37.59168Zm-8.67669,4.85744-.19855.05a7.78688,7.78688,0,0,1-3.71932.00908l-.20115-.04866A8.6631,8.6631,0,0,1,24.142,36.752l-1.22766-3.68493a1.33189,1.33189,0,0,0-.84872-.84353,2.70566,2.70566,0,0,1-1.8363-2.21524l-.29329-2.26391c4.66926-1.19262,7.09344-4.98462,8.216-7.48276A24.651,24.651,0,0,0,44.78387,27.9949l-.26214,2.01474a2.70213,2.70213,0,0,1-1.835,2.21394,1.33184,1.33184,0,0,0-.84872.84353l-1.22637,3.68428A8.67678,8.67678,0,0,1,34.45646,42.44912Z" style="fill:#fff"/><path d="M1.512,25.22422a2.2231,2.2231,0,0,0,1.70912-.10706,2.23868,2.23868,0,0,0,1.02522-2.99259,2.24542,2.24542,0,0,0-.17195-.27909l2.59905-2.31509.5783,2.85284c-.05564.022-.11306.036-.16725.06253a2.237,2.237,0,0,0,.25826,4.12552,2.25,2.25,0,0,0,.728.122c.05126,0,.10154-.01395.15264-.01752a2.4356,2.4356,0,0,0,1.89389,1.67019l.122-1.32369c-.33011-.03042-.597-.42225-.77362-.82512a2.216,2.216,0,0,0,.71782-1.01637A2.24,2.24,0,0,0,8.79367,22.3387c-.06716-.023-.13626-.032-.2044-.0485L7.82247,18.507,12.888,13.99488l-.88506-.99277L7.51669,16.99826,6.18262,10.417l-1.30293.26344,1.488,7.34123L3.00964,21.0129c-.01622-.006-.03033-.01566-.04672-.02126A2.23717,2.23717,0,1,0,1.512,25.22422Zm7.41528-.47432a.90882.90882,0,1,1-.8591-1.203.89412.89412,0,0,1,.29459.04932A.90911.90911,0,0,1,8.92733,24.7499ZM1.37709,22.813a.91061.91061,0,0,1,.8604-.61318.90811.90811,0,0,1,.815.50871.90609.90609,0,0,1-.41658,1.21469.89593.89593,0,0,1-.693.04347A.91006.91006,0,0,1,1.37709,22.813Z" style="fill:#fff"/><path d="M48.26571,1.52555a1.0412,1.0412,0,0,1,1.45476.23619l.57653.79909L46.82652,5.06449l.77864,1.07712,3.46918-2.50285,1.186,1.64407L48.79,7.78585l.77864,1.07842,3.46983-2.50269,1.18565,1.64375-3.47065,2.50382.77865,1.07713,3.4695-2.503,1.18646,1.64465-3.46983,2.5026.77865,1.07843,3.46918-2.50221.57587.79827a1.04367,1.04367,0,0,1-.23619,1.45542l-2.53708,1.83111.77864,1.07712,2.53708-1.83111a2.37124,2.37124,0,0,0,.53467-3.30988L50.7976.9844a2.37088,2.37088,0,0,0-3.31054-.536L44.94869,2.27954l.77864,1.07712Z" style="fill:#fff"/></g></g></svg>