<svg xmlns="http://www.w3.org/2000/svg" width="74.15542" height="66.44426" viewBox="0 0 74.15542 66.44426"><g id="f64aaa7f-0942-47e5-837f-b3ae36e7ee59" data-name="Layer 2"><g id="bb94f7cf-97e1-452a-97ef-903f67eee28d" data-name="Layer 1"><path d="M74.15542,29.00967C74.15542,13.01373,57.5223,0,37.07771,0S0,13.01373,0,29.00967c0,7.99926,4.23971,15.665,11.65889,21.13109V65.11537a1.32874,1.32874,0,0,0,2.26845.93956l9.93419-9.93419a46.11838,46.11838,0,0,0,13.21618,1.89989C57.5223,58.02063,74.15542,45.0069,74.15542,29.00967ZM37.07771,55.36286a43.34661,43.34661,0,0,1-13.18633-2.01409,1.33569,1.33569,0,0,0-1.34316.327l-8.23156,8.23156V49.549a1.32853,1.32853,0,0,0-.55932-1.17056C6.70282,43.39381,2.65777,36.33411,2.65777,29.00967c0-14.53079,15.4405-26.3519,34.41994-26.3519s34.41994,11.82111,34.41994,26.3519S56.05715,55.36286,37.07771,55.36286Z" style="fill:#fff"/><polygon points="38.883 36.569 39.625 11.093 34.53 11.093 35.274 36.569 38.883 36.569" style="fill:#fff"/><path d="M37.07739,40.86817a3.29472,3.29472,0,0,0,0,6.58132,3.08059,3.08059,0,0,0,3.13144-3.29066A3.05145,3.05145,0,0,0,37.07739,40.86817Z" style="fill:#fff"/></g></g></svg>