<svg xmlns="http://www.w3.org/2000/svg" width="50" height="50" viewBox="0 0 50 50"><g id="Layer_2" data-name="Layer 2"><g id="Layer_1-2" data-name="Layer 1"><path d="M42,50H32.242a1,1,0,0,1-1-1l.029-17.153a1,1,0,0,1,1-1H38.2l.707-5.574-6.66-.058a1,1,0,0,1-1-1V19.59c0-1.943.476-4.527,4.59-4.527h2.784l.052-4.713-4.59-.052c-5.208,0-8.317,3.206-8.317,8.576v5.342a1,1,0,0,1-1,1H20.313l-.03,5.581,4.508.051a1,1,0,0,1,1,1L25.761,49a1,1,0,0,1-1,1H8a8.009,8.009,0,0,1-8-8V8A8.009,8.009,0,0,1,8,0H42a8.009,8.009,0,0,1,8,8V42A8.009,8.009,0,0,1,42,50Zm-8.756-2H42a6.007,6.007,0,0,0,6-6V8a6.007,6.007,0,0,0-6-6H8A6.006,6.006,0,0,0,2,8V42a6.007,6.007,0,0,0,6,6H23.763l.026-15.153H20.334A2.055,2.055,0,0,1,18.283,30.8l-.021-5.529a2.05,2.05,0,0,1,2.051-2.06h3.448V18.873C23.761,12.35,27.714,8.3,34.078,8.3h4.539a2.054,2.054,0,0,1,2.051,2.052v4.662a2.054,2.054,0,0,1-2.05,2.051H35.833c-2.231,0-2.591.746-2.591,2.527v3.625h5.609a2.051,2.051,0,0,1,2.037,2.293l-.655,5.529a2.053,2.053,0,0,1-2.038,1.81H33.27Z"/></g></g></svg>