<svg xmlns="http://www.w3.org/2000/svg" width="57.09199" height="65.78046" viewBox="0 0 57.09199 65.78046"><g id="fd02ecd1-8b1f-4c55-b279-1c74c5d9c47e" data-name="Layer 2"><g id="ff45d290-24af-40bc-bd73-06cc6f2e9bf3" data-name="Layer 1"><path d="M24.22777,33.88981v-5.322a1.32889,1.32889,0,1,0-2.65777,0v5.322a6.52236,6.52236,0,0,0,6.51465,6.516H38.16938a6.52264,6.52264,0,0,0,6.516-6.516v-5.322a1.32889,1.32889,0,1,0-2.65777,0v5.322A3.86308,3.86308,0,0,1,38.16938,37.748H28.08465A3.862,3.862,0,0,1,24.22777,33.88981Z" style="fill:#fff"/><path d="M12.2081,13.39591v4.23526C4.71139,18.72792,3.47756,23.42849,2.81636,28.9636L.17546,51.09265C-.39554,55.88.42852,59.563,2.62689,62.03908c2.20356,2.48258,5.76586,3.74138,10.587,3.74138H43.87813c4.82111,0,8.3834-1.2588,10.587-3.74138C56.66346,59.563,57.48753,55.88,56.91652,51.09265l-2.6409-22.129c-.75528-6.333-2.25806-11.57454-13.03838-11.57454h-5.9138V13.39591a6.52292,6.52292,0,0,0-6.51595-6.5153H18.72275A6.52265,6.52265,0,0,0,12.2081,13.39591Zm1.00575,49.72678c-4.02818,0-6.92214-.95773-8.59882-2.84724-1.67279-1.88432-2.27753-4.86782-1.8-8.86875L5.456,29.279c.6839-5.72433,1.55209-9.23212,10.40008-9.23212h.35331c-2.42045,2.133-3.08294,5.3518-3.50812,8.91677l-2.6409,22.12905c-.571,4.78736.25306,8.47034,2.45143,10.94643A9.181,9.181,0,0,0,13.683,63.12269ZM51.636,29.27765l2.6409,22.12905c.47757,4.00093-.12718,6.98573-1.8,8.86875-1.67668,1.88951-4.56934,2.84724-8.59883,2.84724H23.09873c-4.02948,0-6.92214-.95773-8.59882-2.84724-1.67279-1.883-2.27753-4.86782-1.8-8.86875l2.6409-22.129c.68261-5.723,1.55079-9.23082,10.39878-9.23082H41.23724C50.08522,20.04683,50.95341,23.55462,51.636,29.27765ZM18.72275,9.53838H28.80749a3.86253,3.86253,0,0,1,3.85818,3.85753v3.99315H15.85605c-.34844,0-.66088.02044-.99018.03123V13.39591A3.86142,3.86142,0,0,1,18.72275,9.53838Z" style="fill:#fff"/><path d="M44.45563,12.17734a.66444.66444,0,0,0,1.32888,0V9.71682a.66444.66444,0,1,0-1.32888,0Z" style="fill:#fff"/><path d="M45.12007,3.7881a.66406.66406,0,0,0,.66444-.66444V.66444a.66444.66444,0,1,0-1.32888,0V3.12366A.66406.66406,0,0,0,45.12007,3.7881Z" style="fill:#fff"/><path d="M41.82252,7.085a.66445.66445,0,0,0,0-1.32889H39.3633a.66445.66445,0,0,0,0,1.32889Z" style="fill:#fff"/><path d="M50.87555,5.75612H48.41633a.66445.66445,0,0,0,0,1.32889h2.45922a.66445.66445,0,0,0,0-1.32889Z" style="fill:#fff"/><path d="M53.20758,10.402a.66406.66406,0,0,0-.66444.66444v1.896h-.15443a.1629.1629,0,0,1-.12588,0H50.64844a.66444.66444,0,1,0,0,1.32888h1.61439a.1629.1629,0,0,1,.12588,0h.15443v1.8947a.66445.66445,0,1,0,1.32889,0v-1.8947h1.8947a.66444.66444,0,0,0,0-1.32888H53.872v-1.896A.66406.66406,0,0,0,53.20758,10.402Z" style="fill:#fff"/></g></g></svg>