<svg xmlns="http://www.w3.org/2000/svg" width="53.349" height="50" viewBox="0 0 53.349 50"><g id="Layer_2" data-name="Layer 2"><g id="Layer_1-2" data-name="Layer 1"><path d="M8.968,45.591a1,1,0,0,1-1-1V34.4C2.9,30.653,0,25.4,0,19.917,0,8.935,11.408,0,25.43,0S50.86,8.935,50.86,19.917,39.453,39.834,25.43,39.834a31.664,31.664,0,0,1-9-1.286L9.675,45.3A1,1,0,0,1,8.968,45.591ZM25.43,2C12.511,2,2,10.038,2,19.917c0,4.975,2.75,9.772,7.547,13.16a1,1,0,0,1,.423.817v8.282l5.468-5.468a1,1,0,0,1,1.01-.245,29.553,29.553,0,0,0,8.983,1.371c12.92,0,23.43-8.038,23.43-17.917S38.35,2,25.43,2Z"/><path d="M46.821,50a1,1,0,0,1-.707-.293L41.56,45.153a22.3,22.3,0,0,1-6.159.853c-5.923,0-11.458-2.291-14.806-6.128A1,1,0,0,1,22.1,38.563c2.974,3.409,7.945,5.443,13.3,5.443a20.209,20.209,0,0,0,6.139-.936,1,1,0,0,1,1.011.245l3.27,3.271V41.579a1,1,0,0,1,.423-.817c3.244-2.292,5.1-5.528,5.1-8.878a10.028,10.028,0,0,0-2.355-6.331,1,1,0,1,1,1.555-1.259,12.008,12.008,0,0,1,2.8,7.59,12.906,12.906,0,0,1-5.529,10.2V49a1,1,0,0,1-1,1Z"/></g></g></svg>