<svg xmlns="http://www.w3.org/2000/svg" width="38.617" height="50.007" viewBox="0 0 38.617 50.007"><g id="Layer_2" data-name="Layer 2"><g id="Layer_1-2" data-name="Layer 1"><path d="M5.318,50.007a3.509,3.509,0,0,1-.871-.111A3.3,3.3,0,0,1,1.92,46.785L0,3.524a3.314,3.314,0,0,1,1.94-3.2A3.314,3.314,0,0,1,5.643.9L37.517,30.21a3.365,3.365,0,0,1-2.794,5.8L18.2,33.448a1.365,1.365,0,0,0-1.377.641h0L8.159,48.381A3.3,3.3,0,0,1,5.318,50.007Zm-1.929-48a1.477,1.477,0,0,0-.6.132A1.34,1.34,0,0,0,2,3.435L3.918,46.7a1.365,1.365,0,0,0,2.531.648l8.669-14.292a3.35,3.35,0,0,1,3.394-1.58L35.03,34.036a1.365,1.365,0,0,0,1.134-2.354L4.29,2.37A1.3,1.3,0,0,0,3.389,2.005ZM15.973,33.571h0Z"/></g></g></svg>