<svg xmlns="http://www.w3.org/2000/svg" width="42.963" height="49.5" viewBox="0 0 42.963 49.5"><g id="Layer_2" data-name="Layer 2"><g id="Layer_1-2" data-name="Layer 1"><path d="M33.019,49.5H17.382c-3.628,0-6.309-.947-7.967-2.815S7.14,42.051,7.57,38.448L9.558,21.8c.569-4.765,1.7-8.71,9.811-8.71H31.031c8.113,0,9.243,3.945,9.812,8.71l1.988,16.653c.429,3.6-.191,6.374-1.845,8.237S36.647,49.5,33.019,49.5ZM19.369,15.085c-6.658,0-7.311,2.64-7.825,6.948L9.556,38.685c-.359,3.01.1,5.255,1.355,6.672S14.35,47.5,17.382,47.5H33.019c3.031,0,5.209-.721,6.471-2.143S41.2,41.7,40.844,38.685L38.857,22.033c-.514-4.308-1.167-6.948-7.826-6.948Z"/><path d="M28.723,30.405H21.134a4.908,4.908,0,0,1-4.9-4.9v-4a1,1,0,0,1,2,0v4a2.9,2.9,0,0,0,2.9,2.9h7.589a2.905,2.905,0,0,0,2.9-2.9v-4a1,1,0,0,1,2,0v4A4.908,4.908,0,0,1,28.723,30.405Z"/><path d="M25.581,15.085a1,1,0,0,1-1-1v-4a2.906,2.906,0,0,0-2.9-2.9H14.089a2.905,2.905,0,0,0-2.9,2.9v4a1,1,0,0,1-2,0v-4a4.908,4.908,0,0,1,4.9-4.9h7.589a4.909,4.909,0,0,1,4.9,4.9v4A1,1,0,0,1,25.581,15.085Z"/><path d="M25.581,49.5H9.944c-3.628,0-6.309-.947-7.967-2.815S-.3,42.051.132,38.448L2.12,21.8c.569-4.765,1.7-8.71,9.811-8.71H23.593a1,1,0,0,1,0,2H11.931c-6.658,0-7.311,2.64-7.825,6.948L2.118,38.685c-.359,3.01.1,5.255,1.355,6.672S6.912,47.5,9.944,47.5H25.581a1,1,0,1,1,0,2Z"/><path d="M33.953,9.663a.5.5,0,0,1-.5-.5V7.312a.5.5,0,1,1,1,0V9.163A.5.5,0,0,1,33.953,9.663Z"/><path d="M33.953,2.851a.5.5,0,0,1-.5-.5V.5a.5.5,0,0,1,1,0V2.351A.5.5,0,0,1,33.953,2.851Z"/><path d="M31.472,5.332H29.621a.5.5,0,1,1,0-1h1.851a.5.5,0,0,1,0,1Z"/><path d="M38.284,5.332h-1.85a.5.5,0,0,1,0-1h1.85a.5.5,0,0,1,0,1Z"/><path d="M40.039,12.68a.5.5,0,0,1-.5-.5V10.965a.5.5,0,0,1,1,0V12.18A.5.5,0,0,1,40.039,12.68Z"/><path d="M40.039,11.658a.5.5,0,0,1-.5-.5V8.328a.5.5,0,0,1,1,0v2.83A.5.5,0,0,1,40.039,11.658Z"/><path d="M39.328,10.754H38.113a.5.5,0,0,1,0-1h1.215a.5.5,0,0,1,0,1Z"/><path d="M41.965,10.754H39.423a.5.5,0,0,1,0-1h2.542a.5.5,0,0,1,0,1Z"/></g></g></svg>