<svg xmlns="http://www.w3.org/2000/svg" width="50" height="50" viewBox="0 0 50 50"><g id="Layer_2" data-name="Layer 2"><g id="Layer_1-2" data-name="Layer 1"><path d="M45.6,14.952H39.448c-2.961,0-4.4-1.315-4.4-4.022V4.022c0-2.707,1.439-4.022,4.4-4.022H45.6C48.561,0,50,1.315,50,4.022V10.93C50,13.637,48.561,14.952,45.6,14.952ZM39.448,2c-2.067,0-2.4.6-2.4,2.022V10.93c0,1.426.333,2.022,2.4,2.022H45.6c2.067,0,2.4-.6,2.4-2.022V4.022C48,2.6,47.667,2,45.6,2Z"/><path d="M45.6,32.476H39.448c-2.961,0-4.4-1.439-4.4-4.4V21.924c0-2.961,1.439-4.4,4.4-4.4H45.6c2.961,0,4.4,1.44,4.4,4.4v6.152C50,31.037,48.561,32.476,45.6,32.476ZM39.448,19.523c-1.885,0-2.4.517-2.4,2.4v6.152c0,1.884.515,2.4,2.4,2.4H45.6c1.884,0,2.4-.516,2.4-2.4V21.924c0-1.884-.516-2.4-2.4-2.4Z"/><path d="M45.6,50H39.448c-2.961,0-4.4-1.439-4.4-4.4V39.447c0-2.96,1.439-4.4,4.4-4.4H45.6c2.961,0,4.4,1.44,4.4,4.4V45.6C50,48.561,48.561,50,45.6,50ZM39.448,37.047c-1.885,0-2.4.516-2.4,2.4V45.6c0,1.884.515,2.4,2.4,2.4H45.6c1.884,0,2.4-.516,2.4-2.4V39.447c0-1.884-.516-2.4-2.4-2.4Z"/><path d="M28.076,14.952H21.924c-2.961,0-4.4-1.315-4.4-4.022V4.022c0-2.707,1.439-4.022,4.4-4.022h6.152c2.961,0,4.4,1.315,4.4,4.022V10.93C32.477,13.637,31.037,14.952,28.076,14.952ZM21.924,2c-2.067,0-2.4.6-2.4,2.022V10.93c0,1.426.333,2.022,2.4,2.022h6.152c2.067,0,2.4-.6,2.4-2.022V4.022C30.477,2.6,30.143,2,28.076,2Z"/><path d="M28.076,32.476H21.924c-2.961,0-4.4-1.439-4.4-4.4V21.924c0-2.961,1.439-4.4,4.4-4.4h6.152c2.961,0,4.4,1.44,4.4,4.4v6.152C32.477,31.037,31.037,32.476,28.076,32.476ZM21.924,19.523c-1.884,0-2.4.517-2.4,2.4v6.152c0,1.884.516,2.4,2.4,2.4h6.152c1.884,0,2.4-.516,2.4-2.4V21.924c0-1.884-.517-2.4-2.4-2.4Z"/><path d="M28.076,50H21.924c-2.961,0-4.4-1.439-4.4-4.4V39.447c0-2.96,1.439-4.4,4.4-4.4h6.152c2.961,0,4.4,1.44,4.4,4.4V45.6C32.477,48.561,31.037,50,28.076,50ZM21.924,37.047c-1.884,0-2.4.516-2.4,2.4V45.6c0,1.884.516,2.4,2.4,2.4h6.152c1.884,0,2.4-.516,2.4-2.4V39.447c0-1.884-.517-2.4-2.4-2.4Z"/><path d="M10.553,14.952H4.4c-2.961,0-4.4-1.315-4.4-4.022V4.022C0,1.315,1.439,0,4.4,0h6.153c2.96,0,4.4,1.315,4.4,4.022V10.93C14.953,13.637,13.513,14.952,10.553,14.952ZM4.4,2C2.333,2,2,2.6,2,4.022V10.93c0,1.426.333,2.022,2.4,2.022h6.153c2.066,0,2.4-.6,2.4-2.022V4.022C12.953,2.6,12.619,2,10.553,2Z"/><path d="M10.553,32.476H4.4c-2.961,0-4.4-1.439-4.4-4.4V21.924c0-2.961,1.439-4.4,4.4-4.4h6.153c2.96,0,4.4,1.44,4.4,4.4v6.152C14.953,31.037,13.513,32.476,10.553,32.476ZM4.4,19.523c-1.884,0-2.4.517-2.4,2.4v6.152c0,1.884.516,2.4,2.4,2.4h6.153c1.884,0,2.4-.516,2.4-2.4V21.924c0-1.884-.516-2.4-2.4-2.4Z"/><path d="M10.553,50H4.4C1.439,50,0,48.561,0,45.6V39.447c0-2.96,1.439-4.4,4.4-4.4h6.153c2.96,0,4.4,1.44,4.4,4.4V45.6C14.953,48.561,13.513,50,10.553,50ZM4.4,37.047c-1.884,0-2.4.516-2.4,2.4V45.6c0,1.884.516,2.4,2.4,2.4h6.153c1.884,0,2.4-.516,2.4-2.4V39.447c0-1.884-.516-2.4-2.4-2.4Z"/></g></g></svg>