<svg xmlns="http://www.w3.org/2000/svg" width="55.802" height="50" viewBox="0 0 55.802 50"><g id="Layer_2" data-name="Layer 2"><g id="Layer_1-2" data-name="Layer 1"><path d="M9.774,50a1,1,0,0,1-1-1V37.732C3.19,33.62,0,27.85,0,21.831,0,9.793,12.516,0,27.9,0S55.8,9.793,55.8,21.831s-12.516,21.83-27.9,21.83a34.743,34.743,0,0,1-9.944-1.429l-7.476,7.475A1,1,0,0,1,9.774,50ZM27.9,2C13.619,2,2,10.9,2,21.831c0,5.511,3.044,10.823,8.353,14.574a1,1,0,0,1,.422.817v9.363l6.194-6.193a1,1,0,0,1,1.011-.246A32.651,32.651,0,0,0,27.9,41.661c14.282,0,25.9-8.9,25.9-19.83S42.183,2,27.9,2Z"/><path d="M25.545,33.23A2.341,2.341,0,0,1,27.9,30.754a2.3,2.3,0,0,1,2.356,2.476A2.318,2.318,0,0,1,27.9,35.706,2.342,2.342,0,0,1,25.545,33.23Zm1-5.712-.56-19.17h3.834l-.558,19.17Z"/></g></g></svg>