<svg xmlns="http://www.w3.org/2000/svg" width="48" height="39.641" viewBox="0 0 48 39.641"><g id="Layer_2" data-name="Layer 2"><g id="Layer_1-2" data-name="Layer 1"><path d="M20.476,6.436H.96a.96.96,0,0,1,0-1.92H20.476a.96.96,0,1,1,0,1.92Z" fill="#1a1a1a"/><path d="M47.04,6.436H38.415a.96.96,0,0,1,0-1.92H47.04a.96.96,0,1,1,0,1.92Z" fill="#1a1a1a"/><path d="M24.992,10.952a5.476,5.476,0,1,1,5.476-5.476A5.482,5.482,0,0,1,24.992,10.952Zm0-9.032a3.556,3.556,0,1,0,3.556,3.556A3.561,3.561,0,0,0,24.992,1.92Z" fill="#1a1a1a"/><path d="M47.04,35.125H38.415a.96.96,0,0,1,0-1.92H47.04a.96.96,0,0,1,0,1.92Z" fill="#1a1a1a"/><path d="M22.211,35.125H.96a.96.96,0,1,1,0-1.92H22.211a.96.96,0,1,1,0,1.92Z" fill="#1a1a1a"/><path d="M33.9,39.641a5.476,5.476,0,1,1,5.476-5.476A5.482,5.482,0,0,1,33.9,39.641Zm0-9.032a3.556,3.556,0,1,0,3.556,3.556A3.561,3.561,0,0,0,33.9,30.609Z" fill="#1a1a1a"/><path d="M9.585,20.781H.96a.96.96,0,1,1,0-1.92H9.585a.96.96,0,1,1,0,1.92Z" fill="#1a1a1a"/><path d="M47.04,20.781H25.789a.96.96,0,1,1,0-1.92H47.04a.96.96,0,0,1,0,1.92Z" fill="#1a1a1a"/><path d="M14.1,25.3a5.476,5.476,0,1,1,5.476-5.476A5.482,5.482,0,0,1,14.1,25.3Zm0-9.032a3.556,3.556,0,1,0,3.556,3.556A3.56,3.56,0,0,0,14.1,16.265Z" fill="#1a1a1a"/></g></g></svg>