<svg xmlns="http://www.w3.org/2000/svg" width="55.338" height="50.003" viewBox="0 0 55.338 50.003"><g id="Layer_2" data-name="Layer 2"><g id="Layer_1-2" data-name="Layer 1"><path d="M27.671,50a1,1,0,0,1-.626-.22c-.927-.744-22.721-18.32-25.984-28.73A17.645,17.645,0,0,1,2.335,6.243,12.59,12.59,0,0,1,11.907.125C20.269-.893,25.685,4.6,27.671,7.086,29.656,4.6,35.065-.9,43.435.125a12.593,12.593,0,0,1,9.572,6.118,17.673,17.673,0,0,1,1.255,14.862C51.018,31.463,29.223,49.039,28.3,49.783A1,1,0,0,1,27.671,50Zm-13.8-48a14.2,14.2,0,0,0-1.721.1,10.653,10.653,0,0,0-8.1,5.171A15.827,15.827,0,0,0,2.951,20.4c2.8,8.94,21.086,24.32,24.72,27.31,3.633-2.99,21.914-18.365,24.7-27.258A15.855,15.855,0,0,0,51.3,7.281a10.655,10.655,0,0,0-8.1-5.171C33.94.98,28.568,9.232,28.514,9.315a1,1,0,0,1-.843.462h0a1,1,0,0,1-.844-.462C26.777,9.237,22.058,2.005,13.869,2.005Z"/></g></g></svg>