<svg xmlns="http://www.w3.org/2000/svg" width="66.44426" height="66.44426" viewBox="0 0 66.44426 66.44426"><g id="f2b83a16-3ae9-4b23-b455-7f220ef48485" data-name="Layer 2"><g id="ac4c0f61-a1a5-45c2-a228-72c5cdb466f0" data-name="Layer 1"><path d="M55.81318,0H10.63108A10.64326,10.64326,0,0,0,0,10.63108v45.1821A10.64326,10.64326,0,0,0,10.63108,66.44426h22.2744A1.32839,1.32839,0,0,0,34.23436,65.118l.03894-22.7948a1.32924,1.32924,0,0,0-1.32889-1.33148l-5.99036-.06748.04023-7.41658h5.9112a1.32811,1.32811,0,0,0,1.32888-1.32888V25.08011c0-7.13627,4.132-11.39675,11.05285-11.39675l6.09938.06878-.06878,6.26419-3.70116.0013c-5.46737,0-6.09937,3.43252-6.09937,6.015V32.18a1.32812,1.32812,0,0,0,1.32888,1.32889l8.85059.07527L50.75848,40.993H42.8851a1.3284,1.3284,0,0,0-1.32889,1.32629l-.03893,22.7935a1.32922,1.32922,0,0,0,1.32888,1.33148h12.967A10.64327,10.64327,0,0,0,66.44426,55.81318V10.63108A10.64326,10.64326,0,0,0,55.81318,0Zm7.97331,55.81318a7.982,7.982,0,0,1-7.97331,7.97331H44.17764l.03375-20.13573h6.54709A2.727,2.727,0,0,0,53.46556,41.246l.87079-7.3478a2.72581,2.72581,0,0,0-2.70709-3.04709H44.17505V26.03265c0-2.36707.47886-3.35725,3.4416-3.35725l3.70116-.0013a2.72963,2.72963,0,0,0,2.72655-2.72655V13.75214a2.73047,2.73047,0,0,0-2.72655-2.72655h-6.0306c-8.45737,0-13.71062,5.38562-13.71062,14.05452v5.76975H26.99428a2.72714,2.72714,0,0,0-2.72655,2.73693l.02855,7.3491a2.73277,2.73277,0,0,0,2.72655,2.71357h4.5901l-.03374,20.137H10.63108a7.982,7.982,0,0,1-7.97331-7.97331V10.63108a7.982,7.982,0,0,1,7.97331-7.97331h45.1821a7.982,7.982,0,0,1,7.97331,7.97331Z" style="fill:#4A271E"/></g></g></svg>