<svg xmlns="http://www.w3.org/2000/svg" width="48" height="43.372" viewBox="0 0 48 43.372"><g id="Layer_2" data-name="Layer 2"><g id="Layer_1-2" data-name="Layer 1"><path d="M24,43.372a.864.864,0,0,1-.542-.191C22.655,42.536,3.751,27.29.921,18.26a15.3,15.3,0,0,1,1.1-12.845,10.921,10.921,0,0,1,8.3-5.307C17.584-.773,22.279,3.992,24,6.146,25.724,3.992,30.415-.775,37.675.108a10.921,10.921,0,0,1,8.3,5.307,15.332,15.332,0,0,1,1.089,12.891c-2.814,8.984-21.719,24.23-22.523,24.875A.865.865,0,0,1,24,43.372ZM12.03,1.739a12.413,12.413,0,0,0-1.493.091A9.245,9.245,0,0,0,3.508,6.315,13.728,13.728,0,0,0,2.56,17.7C4.992,25.451,20.85,38.791,24,41.385c3.152-2.594,19.009-15.93,21.427-23.644A13.758,13.758,0,0,0,44.5,6.315,9.243,9.243,0,0,0,37.466,1.83C29.436.849,24.779,8.007,24.733,8.08a.868.868,0,0,1-.732.4h0a.868.868,0,0,1-.731-.4C23.226,8.012,19.133,1.739,12.03,1.739Z" fill="#1a1a1a"/></g></g></svg>