<svg xmlns="http://www.w3.org/2000/svg" width="48" height="43.372" viewBox="0 0 48 43.372"><g id="Layer_2" data-name="Layer 2"><g id="Layer_1-2" data-name="Layer 1"><path d="M45.98,5.415a10.962,10.962,0,0,0-8.3-5.309C30.418-.77,25.726,3.992,24,6.143,22.282,3.992,17.59-.77,10.329.106a10.931,10.931,0,0,0-8.3,5.309A15.3,15.3,0,0,0,.918,18.261c2.837,9.03,21.737,24.279,22.544,24.92a.829.829,0,0,0,.538.191.868.868,0,0,0,.546-.191c.8-.641,19.707-15.89,22.518-24.877A15.321,15.321,0,0,0,45.98,5.415Zm-.555,12.326C43.013,25.46,27.157,38.792,24,41.386,20.851,38.792,5,25.452,2.558,17.7a13.7,13.7,0,0,1,.954-11.38,9.2,9.2,0,0,1,7.026-4.485,12.79,12.79,0,0,1,1.492-.095c7.1,0,11.2,6.28,11.241,6.341A.905.905,0,0,0,24,8.485a.889.889,0,0,0,.737-.407c.043-.07,4.684-7.217,12.725-6.246A9.235,9.235,0,0,1,44.5,6.317,13.756,13.756,0,0,1,45.425,17.741Z" fill="#1a1a1a"/><path d="M45.425,17.865C43.013,25.585,27.157,38.917,24,41.511,20.851,38.917,5,25.576,2.558,17.822a13.7,13.7,0,0,1,.954-11.38,9.2,9.2,0,0,1,7.026-4.485,12.575,12.575,0,0,1,1.492-.095c7.1,0,11.2,6.28,11.241,6.34A.9.9,0,0,0,24,8.61a.888.888,0,0,0,.737-.408c.043-.069,4.684-7.216,12.725-6.245A9.233,9.233,0,0,1,44.5,6.442,13.754,13.754,0,0,1,45.425,17.865Z" fill="#eb1c24"/></g></g></svg>