<svg xmlns="http://www.w3.org/2000/svg" width="43.013" height="48" viewBox="0 0 43.013 48"><g id="Layer_2" data-name="Layer 2"><g id="Layer_1-2" data-name="Layer 1"><path d="M21.807,37.779H13.266c-2.769,0-4.815-.723-6.08-2.149S5.45,32.093,5.777,29.344L7.3,16.634c.434-3.636,1.3-6.647,7.488-6.647h8.9c6.192,0,7.054,3.011,7.489,6.647l1.2,10.081a.763.763,0,0,1-1.516.181l-1.2-10.08c-.392-3.288-.891-5.3-5.973-5.3h-8.9c-5.082,0-5.58,2.015-5.972,5.3L7.293,29.525c-.274,2.3.074,4.011,1.034,5.092s2.625,1.635,4.939,1.635h8.541a.764.764,0,0,1,0,1.527Z"/><path d="M21.922,23.206H16.13a3.747,3.747,0,0,1-3.742-3.742V16.407a.763.763,0,0,1,1.526,0v3.057a2.218,2.218,0,0,0,2.216,2.215h5.792a2.217,2.217,0,0,0,2.215-2.215V16.407a.763.763,0,0,1,1.526,0v3.057A3.746,3.746,0,0,1,21.922,23.206Z"/><path d="M19.523,11.513a.763.763,0,0,1-.763-.763V7.694a2.218,2.218,0,0,0-2.215-2.216H10.753A2.218,2.218,0,0,0,8.538,7.694V10.75a.764.764,0,0,1-1.527,0V7.694a3.746,3.746,0,0,1,3.742-3.742h5.792a3.746,3.746,0,0,1,3.742,3.742V10.75A.763.763,0,0,1,19.523,11.513Z"/><path d="M19.523,37.779H7.589c-2.769,0-4.814-.723-6.08-2.149S-.227,32.093.1,29.344l1.517-12.71C2.052,13,2.915,9.987,9.106,9.987h8.9a.763.763,0,1,1,0,1.526h-8.9c-5.082,0-5.58,2.015-5.972,5.3L1.617,29.525c-.275,2.3.073,4.011,1.033,5.092s2.625,1.635,4.939,1.635H19.523a.764.764,0,1,1,0,1.527Z"/><path d="M25.913,7.375a.382.382,0,0,1-.382-.382V5.581a.382.382,0,1,1,.764,0V6.993A.382.382,0,0,1,25.913,7.375Z"/><path d="M25.913,2.176a.382.382,0,0,1-.382-.382V.382a.382.382,0,1,1,.764,0V1.794A.382.382,0,0,1,25.913,2.176Z"/><path d="M24.02,4.069H22.607a.382.382,0,0,1,0-.763H24.02a.382.382,0,0,1,0,.763Z"/><path d="M29.219,4.069H27.807a.382.382,0,1,1,0-.763h1.412a.382.382,0,1,1,0,.763Z"/><path d="M30.558,9.678a.381.381,0,0,1-.381-.382V8.369a.382.382,0,1,1,.763,0V9.3A.382.382,0,0,1,30.558,9.678Z"/><path d="M30.558,8.9a.38.38,0,0,1-.381-.381V6.356a.382.382,0,1,1,.763,0v2.16A.381.381,0,0,1,30.558,8.9Z"/><path d="M30.015,8.208h-.927a.382.382,0,1,1,0-.763h.927a.382.382,0,1,1,0,.763Z"/><path d="M32.028,8.208h-1.94a.382.382,0,1,1,0-.763h1.94a.382.382,0,1,1,0,.763Z"/><path d="M32.028,26.031A10.985,10.985,0,1,0,43.013,37.016,11,11,0,0,0,32.028,26.031Z" fill="#eb1c24"/><path d="M30.707,40.483h0a.788.788,0,0,1-.556-.23l-3.483-3.484a.786.786,0,1,1,1.112-1.112l2.927,2.928,5.57-5.57a.786.786,0,0,1,1.112,1.112l-6.126,6.126A.788.788,0,0,1,30.707,40.483Z" fill="#fff"/></g></g></svg>