<svg xmlns="http://www.w3.org/2000/svg" width="66.44426" height="66.44426" viewBox="0 0 66.44426 66.44426"><g id="b10cf394-1821-4caa-8761-c55636358f99" data-name="Layer 2"><g id="e320dbb1-68a9-41c2-9b97-82d2aa746b12" data-name="Layer 1"><path d="M55.81318,0H10.63108A10.64326,10.64326,0,0,0,0,10.63108v45.1821A10.64326,10.64326,0,0,0,10.63108,66.44426h45.1821A10.64327,10.64327,0,0,0,66.44426,55.81318V10.63108A10.64326,10.64326,0,0,0,55.81318,0Zm7.97331,55.81318a7.982,7.982,0,0,1-7.97331,7.97331H10.63108a7.982,7.982,0,0,1-7.97331-7.97331V10.63108a7.982,7.982,0,0,1,7.97331-7.97331h45.1821a7.982,7.982,0,0,1,7.97331,7.97331Z" style="fill:#4A271E"/><path d="M33.22213,17.36894A15.85254,15.85254,0,1,0,49.074,33.22213,15.871,15.871,0,0,0,33.22213,17.36894Zm0,29.0473A13.19477,13.19477,0,1,1,46.41624,33.22213,13.2095,13.2095,0,0,1,33.22213,46.41624Z" style="fill:#4A271E"/><path d="M52.44684,8.71951a5.47192,5.47192,0,1,0,5.47257,5.47257A5.47921,5.47921,0,0,0,52.44684,8.71951Zm0,8.28607a2.81415,2.81415,0,1,1,2.8148-2.8135A2.81769,2.81769,0,0,1,52.44684,17.00558Z" style="fill:#4A271E"/></g></g></svg>