<svg xmlns="http://www.w3.org/2000/svg" width="66.44426" height="66.44426" viewBox="0 0 66.44426 66.44426"><g id="a6936dfe-edc4-44ae-817e-9d0ffb3f863b" data-name="Layer 2"><g id="b0661fad-8e07-40fa-be4d-62291acee48b" data-name="Layer 1"><path d="M66.44426,5.34474C66.44426,1.74805,64.53139,0,60.59664,0H52.42088c-3.93344,0-5.84631,1.74805-5.84631,5.34474V14.525c0,3.59668,1.91287,5.34474,5.84631,5.34474h8.17576c3.93475,0,5.84762-1.74806,5.84762-5.34474ZM63.78649,14.525c0,1.8947-.44383,2.687-3.18985,2.687H52.42088c-2.746,0-3.18854-.79227-3.18854-2.687V5.34474c0-1.8947.44253-2.687,3.18854-2.687h8.17576c2.746,0,3.18985.79227,3.18985,2.687Z" style="fill:#fff"/><path d="M66.44426,29.13425c0-3.93475-1.91287-5.84761-5.84762-5.84761H52.42088c-3.93344,0-5.84631,1.91286-5.84631,5.84761V37.31c0,3.93409,1.91287,5.847,5.84631,5.847h8.17576c3.93475,0,5.84762-1.91287,5.84762-5.847ZM63.78649,37.31c0,2.504-.68521,3.18919-3.18985,3.18919H52.42088c-2.50333,0-3.18854-.6852-3.18854-3.18919V29.13425c0-2.504.68521-3.18984,3.18854-3.18984h8.17576c2.50464,0,3.18985.68585,3.18985,3.18984Z" style="fill:#fff"/><path d="M66.44426,60.59664V52.42088c0-3.93409-1.91287-5.847-5.84762-5.847H52.42088c-3.93344,0-5.84631,1.91287-5.84631,5.847v8.17576c0,3.93475,1.91287,5.84762,5.84631,5.84762h8.17576C64.53139,66.44426,66.44426,64.53139,66.44426,60.59664Zm-2.65777,0c0,2.504-.68521,3.18985-3.18985,3.18985H52.42088c-2.50333,0-3.18854-.68586-3.18854-3.18985V52.42088c0-2.504.68521-3.18919,3.18854-3.18919h8.17576c2.50464,0,3.18985.68521,3.18985,3.18919Z" style="fill:#fff"/><path d="M29.13425,19.86969H37.31c3.93345,0,5.84631-1.74806,5.84631-5.34474V5.34474C43.15632,1.74805,41.24346,0,37.31,0H29.13425c-3.93475,0-5.84761,1.74805-5.84761,5.34474V14.525C23.28664,18.12163,25.1995,19.86969,29.13425,19.86969ZM25.94441,5.34474c0-1.8947.44382-2.687,3.18984-2.687H37.31c2.746,0,3.18854.79227,3.18854,2.687V14.525c0,1.8947-.44253,2.687-3.18854,2.687H29.13425c-2.746,0-3.18984-.79227-3.18984-2.687Z" style="fill:#fff"/><path d="M23.28664,37.31c0,3.93409,1.91286,5.847,5.84761,5.847H37.31c3.93345,0,5.84631-1.91287,5.84631-5.847V29.13425c0-3.93475-1.91286-5.84761-5.84631-5.84761H29.13425c-3.93475,0-5.84761,1.91286-5.84761,5.84761Zm2.65777-8.17576c0-2.504.6852-3.18984,3.18984-3.18984H37.31c2.50334,0,3.18854.68585,3.18854,3.18984V37.31c0,2.504-.6852,3.18919-3.18854,3.18919H29.13425c-2.50464,0-3.18984-.6852-3.18984-3.18919Z" style="fill:#fff"/><path d="M23.28664,60.59664c0,3.93475,1.91286,5.84762,5.84761,5.84762H37.31c3.93345,0,5.84631-1.91287,5.84631-5.84762V52.42088c0-3.93409-1.91286-5.847-5.84631-5.847H29.13425c-3.93475,0-5.84761,1.91287-5.84761,5.847Zm2.65777-8.17576c0-2.504.6852-3.18919,3.18984-3.18919H37.31c2.50334,0,3.18854.68521,3.18854,3.18919v8.17576c0,2.504-.6852,3.18985-3.18854,3.18985H29.13425c-2.50464,0-3.18984-.68586-3.18984-3.18985Z" style="fill:#fff"/><path d="M0,14.525c0,3.59668,1.91287,5.34474,5.84632,5.34474h8.17575c3.93475,0,5.84762-1.74806,5.84762-5.34474V5.34474C19.86969,1.74805,17.95682,0,14.02207,0H5.84632C1.91287,0,0,1.74805,0,5.34474ZM2.65777,5.34474c0-1.8947.44253-2.687,3.18855-2.687h8.17575c2.746,0,3.18985.79227,3.18985,2.687V14.525c0,1.8947-.44383,2.687-3.18985,2.687H5.84632c-2.746,0-3.18855-.79227-3.18855-2.687Z" style="fill:#fff"/><path d="M0,37.31c0,3.93409,1.91287,5.847,5.84632,5.847h8.17575c3.93475,0,5.84762-1.91287,5.84762-5.847V29.13425c0-3.93475-1.91287-5.84761-5.84762-5.84761H5.84632C1.91287,23.28664,0,25.1995,0,29.13425Zm2.65777-8.17576c0-2.504.68521-3.18984,3.18855-3.18984h8.17575c2.50464,0,3.18985.68585,3.18985,3.18984V37.31c0,2.504-.68521,3.18919-3.18985,3.18919H5.84632c-2.50334,0-3.18855-.6852-3.18855-3.18919Z" style="fill:#fff"/><path d="M0,60.59664c0,3.93475,1.91287,5.84762,5.84632,5.84762h8.17575c3.93475,0,5.84762-1.91287,5.84762-5.84762V52.42088c0-3.93409-1.91287-5.847-5.84762-5.847H5.84632C1.91287,46.57392,0,48.48679,0,52.42088Zm2.65777-8.17576c0-2.504.68521-3.18919,3.18855-3.18919h8.17575c2.50464,0,3.18985.68521,3.18985,3.18919v8.17576c0,2.504-.68521,3.18985-3.18985,3.18985H5.84632c-2.50334,0-3.18855-.68586-3.18855-3.18985Z" style="fill:#fff"/></g></g></svg>