<svg xmlns="http://www.w3.org/2000/svg" width="42.676" height="54.005" viewBox="0 0 42.676 54.005"><g id="Layer_2" data-name="Layer 2"><g id="Layer_1-2" data-name="Layer 1"><path d="M32.9,54.005H7.913a1.748,1.748,0,0,1-1.747-1.747L2.435,15.085a1.766,1.766,0,0,1,1.742-1.847H36.632a1.749,1.749,0,0,1,1.747,1.747L34.638,52.358A1.723,1.723,0,0,1,32.9,54.005Zm-.248-1.8a.273.273,0,0,0-.005.05ZM8.159,52.147l0,.012Zm-.014-.142H32.668l3.681-36.767H4.455Z"/><path d="M2.256,14.8A2,2,0,0,1,.281,13.1L.024,11.453A2,2,0,0,1,1.692,9.169L40.11,3.18A2,2,0,0,1,42.4,4.848L42.652,6.5a2,2,0,0,1-1.668,2.285L2.565,14.771A2.03,2.03,0,0,1,2.256,14.8ZM40.419,5.156h0L2,11.145l.257,1.65,38.419-5.99-.258-1.649h0Zm-.154-.988h0Z"/><path d="M13.263,9.365a2,2,0,0,1-1.972-1.693l-.465-2.984A2,2,0,0,1,12.494,2.4L27.762.023a2,2,0,0,1,2.284,1.669l.466,2.984A2,2,0,0,1,28.843,6.96L13.575,9.341A2.049,2.049,0,0,1,13.263,9.365ZM28.07,2,12.8,4.38l.466,2.984,15.268-2.38h0Z"/><path d="M27.234,47.67a.819.819,0,0,1-.085,0,1,1,0,0,1-.913-1.08l2.152-25.641a1,1,0,1,1,1.993.167L28.229,46.753A1,1,0,0,1,27.234,47.67Z"/><path d="M13.575,47.67a1,1,0,0,1-1-.917L10.427,21.112a1,1,0,0,1,1.993-.167l2.152,25.641a1,1,0,0,1-.913,1.08A.787.787,0,0,1,13.575,47.67Z"/><path d="M20.4,47.67a1,1,0,0,1-1-1V21.028a1,1,0,0,1,2,0V46.67A1,1,0,0,1,20.4,47.67Z"/></g></g></svg>