<svg xmlns="http://www.w3.org/2000/svg" width="43.35" height="50" viewBox="0 0 43.35 50"><g id="Layer_2" data-name="Layer 2"><g id="Layer_1-2" data-name="Layer 1"><path d="M34.31,50H9.041a1.758,1.758,0,0,1-1.756-1.756l-3.774-37.6A1.775,1.775,0,0,1,5.262,8.79H38.088a1.757,1.757,0,0,1,1.756,1.755l-3.784,37.8A1.732,1.732,0,0,1,34.31,50Zm-.24-1.8a.191.191,0,0,0-.005.048ZM9.279,48.135v0ZM9.265,48H34.089l3.725-37.21H5.531Z"/><path d="M41.35,10.79H2a2,2,0,0,1-2-2V7.078a2,2,0,0,1,2-2H41.35a2,2,0,0,1,2,2V8.79A2,2,0,0,1,41.35,10.79ZM2,7.078V8.79H41.35V7.078Z"/><path d="M29.5,7.078H13.849a2,2,0,0,1-2-2V2a2,2,0,0,1,2-2H29.5a2,2,0,0,1,2,2V5.078A2,2,0,0,1,29.5,7.078ZM13.849,2V5.078H29.5V2Z"/><path d="M28.583,43.592a.806.806,0,0,1-.085,0,1,1,0,0,1-.913-1.08l2.176-25.934a1,1,0,0,1,1.993.167L29.578,42.675A1,1,0,0,1,28.583,43.592Z"/><path d="M14.767,43.592a1,1,0,0,1-1-.917L11.6,16.741a1,1,0,1,1,1.993-.167l2.177,25.934a1,1,0,0,1-.913,1.08A.819.819,0,0,1,14.767,43.592Z"/><path d="M21.675,43.592a1,1,0,0,1-1-1V16.657a1,1,0,0,1,2,0V42.592A1,1,0,0,1,21.675,43.592Z"/></g></g></svg>