<svg xmlns="http://www.w3.org/2000/svg" width="79.34096" height="66.42115" viewBox="0 0 79.34096 66.42115"><g id="b0992054-527d-4599-aefb-2dcb2ff9589f" data-name="Layer 2"><g id="b6f9275d-2248-4b68-8521-d5c2514b3e6f" data-name="Layer 1"><path d="M76.25334,7.51157c-.31016.13756-.62421.26993-.93956.39711A17.802,17.802,0,0,0,77.12413,3.983a2.19484,2.19484,0,0,0-3.21061-2.554,29.16861,29.16861,0,0,1-7.73193,3.195.79321.79321,0,0,1-.71376-.18688A18.21408,18.21408,0,0,0,48.01973.84508,17.35023,17.35023,0,0,0,36.3258,13.34621a19.158,19.158,0,0,0-.49963,5.65165A42.02547,42.02547,0,0,1,7.79759,3.65209a2.15531,2.15531,0,0,0-1.86745-.8007A2.1964,2.1964,0,0,0,4.20156,3.9337a17.9192,17.9192,0,0,0-.05581,17.88545A2.195,2.195,0,0,0,1.65669,23.9669,17.88812,17.88812,0,0,0,8.14928,37.9773a2.26436,2.26436,0,0,0-.45291.39192,2.17024,2.17024,0,0,0-.44383,2.1205A18.03115,18.03115,0,0,0,18.21325,51.83586,29.25887,29.25887,0,0,1,4.5195,55.21517l-1.91287-.0013a2.61162,2.61162,0,0,0-2.5228,1.944,2.63776,2.63776,0,0,0,1.24323,2.93419,46.69606,46.69606,0,0,0,23.46962,6.32907,47.32194,47.32194,0,0,0,20.04488-4.25658,44.3734,44.3734,0,0,0,14.6943-11.01132,48.12545,48.12545,0,0,0,8.97647-15.033,47.5144,47.5144,0,0,0,3.05228-16.467v-.25176a1.49481,1.49481,0,0,1,.56062-1.15888,33.995,33.995,0,0,0,6.843-7.50872,2.19355,2.19355,0,0,0-2.71487-3.22229Zm-5.80219,8.6676a4.13964,4.13964,0,0,0-1.54431,3.22229v.25176a44.826,44.826,0,0,1-2.88358,15.53524,45.489,45.489,0,0,1-8.48072,14.20765A41.7435,41.7435,0,0,1,43.72421,59.75337a44.70321,44.70321,0,0,1-18.92753,4.01A45.14018,45.14018,0,0,1,2.60534,57.87164l1.91286.0013a31.87206,31.87206,0,0,0,17.82835-5.41547,1.32931,1.32931,0,0,0-.52818-2.41509A15.33966,15.33966,0,0,1,10.03749,40.408a16.16812,16.16812,0,0,0,2.25028.15833l.38283-.00389a1.32856,1.32856,0,0,0,.52169-2.53708A15.21321,15.21321,0,0,1,4.32484,24.76761,16.21517,16.21517,0,0,0,7.7327,25.99138a1.3286,1.3286,0,0,0,1.23935-2.2399A15.2281,15.2281,0,0,1,6.17282,5.85825,44.67708,44.67708,0,0,0,36.47374,21.73609a2.11265,2.11265,0,0,0,1.60141-.65276,1.90691,1.90691,0,0,0,.47108-1.4924,16.34026,16.34026,0,0,1,.36466-5.6296A14.68338,14.68338,0,0,1,48.80745,3.38346,15.52045,15.52045,0,0,1,63.7081,6.42925a3.47232,3.47232,0,0,0,3.12625.77086A31.88722,31.88722,0,0,0,74.164,4.34249a15.248,15.248,0,0,1-3.57527,5.20393,1.329,1.329,0,0,0,1.22377,2.25548A31.85761,31.85761,0,0,0,75.842,10.55607,31.37609,31.37609,0,0,1,70.45115,16.17917Z" style="fill:#4A271E"/></g></g></svg>