<svg xmlns="http://www.w3.org/2000/svg" width="44.451" height="51.102" viewBox="0 0 44.451 51.102"><g id="Layer_2" data-name="Layer 2"><g id="Layer_1-2" data-name="Layer 1"><path d="M19.243,44.022a1.032,1.032,0,0,1-.156-.011,1,1,0,0,1-.834-1.142c1.18-7.583.574-10.794.567-10.826a1,1,0,0,1,1.959-.4c.029.139.7,3.516-.55,11.535A1,1,0,0,1,19.243,44.022Z"/><path d="M12.749,51.1a1,1,0,0,1-.793-.391c-6.024-7.83-5.612-12.742-3.018-23.787a29.68,29.68,0,0,0,.666-6.8c.049-3.369.1-6.552,2.562-10.618,2.432-3.994,6.409-5.691,11.5-4.909a3.83,3.83,0,0,0,1.384,0c5.112-.787,9.088.912,11.513,4.907,2.47,4.069,2.517,7.254,2.565,10.626a29.813,29.813,0,0,0,.664,6.8c2.594,11.045,3.006,15.957-3.011,23.787a1,1,0,1,1-1.586-1.219c5.515-7.176,5.137-11.522,2.65-22.111a31.805,31.805,0,0,1-.716-7.224c-.047-3.226-.088-6.013-2.276-9.617-2-3.295-5.188-4.629-9.482-3.971a5.86,5.86,0,0,1-2.021,0c-4.34-.667-7.438.634-9.471,3.974-2.185,3.6-2.225,6.384-2.271,9.607a31.8,31.8,0,0,1-.719,7.234C8.4,37.97,8.02,42.315,13.541,49.492a1,1,0,0,1-.792,1.61Z"/><path d="M29.483,44.022a1,1,0,0,1-.987-.847c-1.24-8.017-.579-11.392-.55-11.532a1,1,0,0,1,1.96.4h0c-.007.031-.607,3.242.567,10.828a1,1,0,0,1-.99,1.152Z"/><path d="M24.366,34.155a7.812,7.812,0,0,1-1.858-.223l-.152-.037A8.512,8.512,0,0,1,16.27,28.29l-.778-2.337a4.049,4.049,0,0,1-2.251-3.113L12.9,20.208a1,1,0,0,1,.855-1.12c4.71-.65,6.055-5.821,6.11-6.041a1,1,0,0,1,1.763-.37,16.737,16.737,0,0,0,13.152,6.4,1,1,0,0,1,1.049,1.127l-.34,2.632a4.053,4.053,0,0,1-2.251,3.113l-.779,2.337a8.515,8.515,0,0,1-6.042,5.594l-.151.038A7.863,7.863,0,0,1,24.366,34.155ZM15,20.879l.221,1.7a2.038,2.038,0,0,0,1.381,1.667,1,1,0,0,1,.639.634l.924,2.773a6.52,6.52,0,0,0,4.662,4.3l.152.037a5.862,5.862,0,0,0,2.8-.007l.151-.038a6.524,6.524,0,0,0,4.629-4.287l.925-2.773a1,1,0,0,1,.638-.634,2.038,2.038,0,0,0,1.381-1.667l.2-1.516a18.554,18.554,0,0,1-12.516-5.819A9.592,9.592,0,0,1,15,20.879Z"/><path d="M6.074,20.088A1.684,1.684,0,1,1,7.665,18.95h0a1.687,1.687,0,0,1-1.591,1.138Zm0-2.368a.684.684,0,0,0-.614.984.684.684,0,0,0,1.261-.078h0a.684.684,0,0,0-.647-.906Z"/><path d="M1.683,19.073A1.683,1.683,0,1,1,2.23,15.8a1.683,1.683,0,0,1-.547,3.276Zm0-2.367a.687.687,0,0,0-.3.07.673.673,0,1,0,.3-.07Z"/><rect x="1.087" y="12.812" width="9.48" height="1" transform="translate(-7.376 7.243) rotate(-41.675)"/><rect x="4.624" y="7.843" width="1" height="9.674" transform="translate(-2.417 1.271) rotate(-11.459)"/><path d="M7.615,21.332c-1.241-.116-1.6-1.735-1.634-1.919l.981-.2c.071.349.347,1.082.745,1.118Z"/><path d="M41.8,12.77l-.585-.811,1.91-1.377a.785.785,0,0,0,.178-1.1L37.416,1.327a.784.784,0,0,0-1.095-.178l-1.91,1.378-.585-.811L35.736.338a1.783,1.783,0,0,1,2.49.4L44.113,8.9a1.783,1.783,0,0,1-.4,2.492Z"/><rect x="39.613" y="8.775" width="3.72" height="1" transform="translate(2.415 26.024) rotate(-35.817)"/><rect x="38.136" y="6.727" width="3.719" height="1" transform="translate(3.335 24.772) rotate(-35.817)"/><rect x="36.658" y="4.678" width="3.719" height="1" transform="translate(4.244 23.5) rotate(-35.785)"/><rect x="35.18" y="2.629" width="3.72" height="1" transform="translate(5.173 22.267) rotate(-35.817)"/></g></g></svg>