<svg xmlns="http://www.w3.org/2000/svg" width="87.48321" height="66.44426" viewBox="0 0 87.48321 66.44426"><g id="fb3b2805-1578-4daf-8022-aebeb63a111a" data-name="Layer 2"><g id="e7490a58-c4ed-45c3-8f2b-4fb576e2566e" data-name="Layer 1"><path d="M67.43313,0H20.05007A20.073,20.073,0,0,0,0,20.05007V46.39418A20.073,20.073,0,0,0,20.05007,66.44426H67.43313A20.073,20.073,0,0,0,87.48321,46.39418V20.05007A20.073,20.073,0,0,0,67.43313,0ZM84.82544,46.39418A17.41182,17.41182,0,0,1,67.43313,63.78649H20.05007A17.41182,17.41182,0,0,1,2.65777,46.39418V20.05007a17.41181,17.41181,0,0,1,17.3923-17.3923H67.43313a17.41182,17.41182,0,0,1,17.39231,17.3923Z" style="fill:#4A271E"/><path d="M58.05178,31.54285,33.40251,19.05211a2.31767,2.31767,0,0,0-3.36633,2.0673v24.247a2.31448,2.31448,0,0,0,3.317,2.092L58.00246,35.70341h.0013a2.31895,2.31895,0,0,0,.048-4.16056ZM32.694,44.82781V21.67225L56.23624,33.60107Z" style="fill:#4A271E"/></g></g></svg>